# xmcd
#
# Track frame offsets: 
#        150
#        16238
#        32192
#        46892
#        63648
#        74386
#        87576
#        105113
#        119863
#        133499
#        147135
#
# Disc length: 2196 seconds
#
# Revision: 0
# Processed by: cddbd v1.5.2PL0 Copyright (c) Steve Scherf et al.
# Submitted via: ExactAudioCopyFreeDBPlugin 1.0
#
DISCID=a308920b
DTITLE=Stone Mountain - Stone Mountain - Live at the Bell
DYEAR=2012
DGENRE=Bluegrass
TTITLE0=Love Oh Love Please Come Home
TTITLE1=Tennessee 1949
TTITLE2=Georgia Peaches
TTITLE3=Daddy On His Knees
TTITLE4=Doug's Tune
TTITLE5=Lonesome Pine
TTITLE6=New Highway to Heaven
TTITLE7=City Folk Call Us Poor
TTITLE8=Lure of the Mountains
TTITLE9=Down in the Old Coal Mine
TTITLE10=City of New Orleans
EXTD=
EXTT0=
EXTT1=
EXTT2=
EXTT3=
EXTT4=
EXTT5=
EXTT6=
EXTT7=
EXTT8=
EXTT9=
EXTT10=
PLAYORDER=
